<svg xmlns="http://www.w3.org/2000/svg" xmlns:se="http://svg-edit.googlecode.com" xmlns:xlink="http://www.w3.org/1999/xlink" xmlns:dc="http://purl.org/dc/elements/1.1/" xmlns:cc="http://creativecommons.org/ns#" xmlns:rdf="http://www.w3.org/1999/02/22-rdf-syntax-ns#" xmlns:inkscape="http://www.inkscape.org/namespaces/inkscape" width="40.20344495245138" height="40.1731492783141">                                    <title>my vector image</title>                                    <!-- Created with Vector Paint - http://www.vectorpaint.yaks.com/ https://chrome.google.com/webstore/detail/hnbpdiengicdefcjecjbnjnoifekhgdo -->                                    <rect id="backgroundrect" width="100%" height="100%" x="0" y="0" fill="#FFFFFF" stroke="none" class="" style=""/>                                <g class="currentLayer" style=""><title>Layer 1</title><path fill="#4a90d6" stroke="#222222" stroke-width="2" stroke-linejoin="round" stroke-dashoffset="" fill-rule="nonzero" marker-start="" marker-mid="" marker-end="" id="svg_2" d="M21.544919339575316,16.881498359729967 C23.000053566490656,16.881498359729967 24.455188874924968,16.881498359729967 25.91032310183999,16.881498359729967 C25.91032310183999,18.336632586644892 25.91032310183999,19.791767895079474 25.91032310183999,21.246902121994484 C24.455188874924968,21.246902121994484 23.000053566490656,21.246902121994484 21.544919339575316,21.246902121994484 C21.544919339575316,19.791767895079474 21.544919339575316,18.336632586644892 21.544919339575316,16.881498359729967 zM15.239334084545987,16.881498359729967 C16.856140278726095,16.881498359729967 18.472977836960847,16.881498359729967 20.089785112660156,16.881498359729967 C20.089785112660156,18.336632586644892 20.089785112660156,19.791767895079474 20.089785112660156,21.246902121994484 C18.472978918480067,21.246902121994484 16.856141360245203,21.246902121994484 15.239334084545987,21.246902121994484 C15.239334084545987,19.791767895079474 15.239334084545987,18.336632586644892 15.239334084545987,16.881498359729967 zM9.418795013846964,16.881498359729967 C11.035601208027323,16.881498359729967 12.6524376847428,16.881498359729967 14.269243878923156,16.881498359729967 C14.269243878923156,18.336632586644892 14.269243878923156,19.791767895079474 14.269243878923156,21.246902121994484 C12.6524376847428,21.246902121994484 11.035600126508143,21.246902121994484 9.418795013846964,21.246902121994484 C9.418795013846964,19.791767895079474 9.418795013846964,18.336632586644892 9.418795013846964,16.881498359729967 zM3.598255943148107,16.881498359729967 C5.215062137328395,16.881498359729967 6.831898614043919,16.881498359729967 8.448705889743337,16.881498359729967 C8.448705889743337,18.336632586644892 8.448705889743337,19.791767895079474 8.448705889743337,21.246902121994484 C6.831898614043919,21.246902121994484 5.215063218847522,21.246902121994484 3.598255943148107,21.246902121994484 C3.598255943148107,19.791767895079474 3.598255943148107,18.336632586644892 3.598255943148107,16.881498359729967 zM21.544919339575316,25.883745553152366 C23.08090360987173,25.785184552652105 24.616860842189894,25.95338348781014 26.152846194005413,25.854822487309658 C26.251399623871844,24.31884795068541 26.205750864828797,22.782870169503887 26.304304294695232,21.246895632879898 C27.741736216644057,21.246895632879898 29.323370327502488,21.246895632879898 30.760771966916153,21.246895632879898 C30.760771966916153,19.791761405964593 30.760771966916153,18.336625016011276 30.760771966916153,16.881491870615125 C29.30563774000099,16.881491870615125 27.85050243156668,16.881491870615125 26.395368204651355,16.881491870615125 C26.395368204651355,15.264672698205459 26.395368204651355,13.647857851872324 26.395368204651355,12.031043005539146 C24.778562010471166,12.031043005539146 23.1617255337556,12.031043005539146 21.544919339575316,12.031043005539146 C21.544919339575316,10.57590877862388 21.544919339575316,9.120773470189683 21.544919339575316,7.665639243274592 C23.1617255337556,7.665639243274592 24.778562010471166,7.665639243274592 26.395368204651355,7.665639243274592 C26.395368204651355,9.120773470189683 26.395368204651355,10.57590877862388 26.395368204651355,12.031043005539146 C27.832770925584086,12.031043005539146 29.414405036442496,11.958942451843868 30.851835876872286,11.958942451843868 C30.95038930673882,13.494912662391549 30.90474162921479,15.10299424182574 31.00329614060051,16.63896877844984 C32.53927932937776,16.737526534392888 34.096900471200954,16.63060755412838 35.63288690453541,16.729165310071433 C35.63288690453541,18.16658425379083 35.61122191351114,19.80947452612206 35.61122191351114,21.246895632879898 C33.99441571933106,21.246895632879898 32.37757924261534,21.246895632879898 30.760773048435233,21.246895632879898 C30.760773048435233,22.863713723770335 30.760773048435233,24.48052640706521 30.760773048435233,26.097344497955767 C29.305638821519977,26.097344497955767 27.850503513085712,26.097344497955767 26.395369286170645,26.097344497955767 C26.395369286170645,27.552478724871047 26.395369286170645,29.007614033305288 26.395369286170645,30.462748260220337 C24.778563091990332,30.462748260220337 23.161726615274823,30.462748260220337 21.54492042109448,30.462748260220337 C21.54492042109448,29.025329316501157 21.54492042109448,27.321162333833513 21.54492042109448,25.883742308595014 L21.544919339575316,25.883745553152366 z" style="color: rgb(0, 0, 0);" class=""/></g></svg>